<?xml version="1.0" standalone="no"?>
<!DOCTYPE svg PUBLIC "-//W3C//DTD SVG 20010904//EN"
 "http://www.w3.org/TR/2001/REC-SVG-20010904/DTD/svg10.dtd">
<svg version="1.0" xmlns="http://www.w3.org/2000/svg"
 width="137.000000pt" height="137.000000pt" viewBox="0 0 137.000000 137.000000"
 preserveAspectRatio="xMidYMid meet">

<g transform="translate(0.000000,137.000000) scale(0.100000,-0.100000)"
fill="#000000" stroke="none">
<path d="M2 971 c1 -218 4 -316 5 -218 3 169 4 177 23 177 11 0 20 7 20 15 0
8 -9 15 -20 15 -14 0 -20 7 -20 23 0 19 8 26 43 36 23 7 74 21 112 32 39 11
84 25 100 30 38 13 38 13 245 38 244 29 464 43 677 44 l183 0 0 103 0 104
-575 0 -575 0 10 -24 c11 -30 3 -38 -23 -25 -14 8 -18 8 -13 0 4 -6 1 -11 -6
-11 -9 0 -9 -3 2 -10 13 -8 12 -10 -2 -10 -10 0 -18 5 -18 11 0 5 -16 17 -35
25 -36 15 -44 29 -22 37 6 3 -16 5 -50 5 l-63 -1 2 -396z m138 161 c0 -10 6
-24 13 -31 8 -10 8 -12 0 -7 -6 3 -14 2 -18 -4 -8 -13 -25 -13 -25 0 0 6 8 10
18 10 14 0 15 2 2 10 -8 5 -11 10 -6 10 6 0 1 7 -10 15 -19 14 -18 14 4 15 15
0 22 -6 22 -18z"/>
<path d="M580 1030 c0 -5 7 -7 15 -4 8 4 15 8 15 10 0 2 -7 4 -15 4 -8 0 -15
-4 -15 -10z"/>
<path d="M248 1007 c-67 -16 -122 -143 -89 -205 14 -26 56 -39 75 -23 11 9 19
9 35 -1 29 -18 34 -54 16 -122 -19 -72 -13 -84 10 -21 10 25 20 43 22 41 3 -2
11 -22 19 -43 l15 -38 -6 40 c-18 117 -18 123 4 158 11 19 21 42 21 51 0 9 9
21 20 28 40 25 14 128 -33 128 -8 0 -17 5 -19 11 -3 9 -9 9 -25 1 -12 -7 -23
-8 -25 -4 -2 5 -20 4 -40 -1z m96 -195 c-19 -27 -19 -27 -22 -4 -4 29 -28 23
-25 -6 2 -15 -2 -20 -12 -16 -8 4 -15 10 -15 14 0 17 32 40 56 40 13 0 24 6
25 13 0 9 2 9 6 -1 3 -7 -3 -25 -13 -40z"/>
<path d="M880 939 c0 -18 2 -19 15 -9 8 7 15 16 15 21 0 5 -7 9 -15 9 -9 0
-15 -9 -15 -21z"/>
<path d="M840 914 c-8 -19 -8 -59 -2 -123 6 -53 8 -99 5 -103 -2 -5 10 -8 28
-8 l32 0 -7 53 c-3 28 -6 80 -6 115 0 49 -3 62 -16 62 -8 0 -13 4 -9 9 3 5 1
12 -5 16 -5 3 -15 -6 -20 -21z"/>
<path d="M910 898 c0 -7 13 -14 30 -15 17 -1 30 2 30 7 0 6 5 10 11 10 5 0 8
-4 5 -9 -3 -4 4 -8 16 -7 12 0 23 8 25 16 4 13 3 13 -5 1 -9 -12 -13 -12 -26
-2 -13 11 -19 11 -30 2 -11 -9 -20 -10 -35 -1 -16 8 -21 8 -21 -2z"/>
<path d="M1045 900 c-3 -5 -1 -10 4 -10 6 0 11 5 11 10 0 6 -2 10 -4 10 -3 0
-8 -4 -11 -10z"/>
<path d="M1090 900 c0 -5 4 -10 9 -10 6 0 13 5 16 10 3 6 -1 10 -9 10 -9 0
-16 -4 -16 -10z"/>
<path d="M1130 900 c0 -5 5 -10 11 -10 5 0 7 5 4 10 -3 6 -8 10 -11 10 -2 0
-4 -4 -4 -10z"/>
<path d="M696 891 c-3 -5 5 -12 19 -15 14 -4 25 -13 25 -21 0 -20 -17 -28 -24
-10 -9 23 -28 18 -24 -7 2 -13 8 -23 13 -23 19 0 35 -16 34 -33 0 -11 -3 -12
-6 -4 -10 25 -31 12 -29 -18 1 -28 18 -49 39 -50 4 0 7 43 7 95 0 94 0 95 -24
95 -14 0 -27 -4 -30 -9z"/>
<path d="M764 818 c0 -104 -6 -138 -21 -138 -7 0 -13 5 -13 11 0 5 -4 7 -10 4
-5 -3 -10 -1 -10 6 0 7 -3 9 -6 6 -14 -13 19 -37 51 -37 54 0 65 23 65 133 l0
97 -28 0 -28 0 0 -82z m46 -108 c0 -5 -9 -14 -20 -20 -16 -8 -20 -8 -20 4 0 8
8 17 18 19 9 3 18 5 20 6 1 0 2 -3 2 -9z"/>
<path d="M470 883 c-31 -11 -40 -37 -40 -118 0 -67 3 -85 18 -98 25 -22 44
-21 76 4 18 14 26 30 26 50 0 27 -3 30 -27 27 -19 -2 -29 -10 -34 -28 -4 -15
-7 5 -7 50 0 47 3 64 7 45 3 -16 10 -29 14 -27 4 1 16 2 27 2 15 0 20 7 20 28
0 46 -40 79 -80 65z"/>
<path d="M560 775 l0 -115 24 0 c14 0 28 5 32 12 5 7 2 9 -8 5 -11 -4 -18 2
-22 19 -7 27 0 47 14 39 4 -3 11 3 15 13 11 24 12 63 3 68 -4 3 -8 21 -8 40 0
30 -3 34 -25 34 l-25 0 0 -115z m38 58 c0 -5 2 -16 7 -26 4 -11 3 -23 -4 -30
-8 -8 -11 -6 -11 10 0 12 -3 28 -6 37 -3 9 -1 16 5 16 6 0 10 -3 9 -7z"/>
<path d="M630 870 c0 -11 7 -20 16 -20 8 0 12 -5 9 -10 -4 -6 -11 -8 -16 -5
-5 4 -9 1 -9 -5 0 -6 8 -10 18 -8 12 2 17 -4 17 -19 0 -11 3 -25 8 -29 4 -4 7
20 7 54 0 59 -1 62 -25 62 -18 0 -25 -5 -25 -20z"/>
<path d="M928 852 c-24 -5 -23 -17 2 -19 12 -1 18 3 14 8 -7 12 28 8 37 -4 6
-9 39 1 39 12 0 7 -63 9 -92 3z"/>
<path d="M1040 850 c19 -13 30 -13 30 0 0 6 -10 10 -22 10 -19 0 -20 -2 -8
-10z"/>
<path d="M1127 846 c-4 -10 -1 -13 9 -9 15 6 19 23 5 23 -5 0 -11 -7 -14 -14z"/>
<path d="M1160 850 c0 -5 5 -10 11 -10 5 0 7 5 4 10 -3 6 -8 10 -11 10 -2 0
-4 -4 -4 -10z"/>
<path d="M1160 805 c0 -8 4 -15 10 -15 5 0 7 7 4 15 -4 8 -8 15 -10 15 -2 0
-4 -7 -4 -15z"/>
<path d="M910 795 c0 -8 4 -15 8 -15 5 0 9 7 9 15 0 8 -4 15 -9 15 -4 0 -8 -7
-8 -15z"/>
<path d="M935 801 c-3 -5 -1 -12 5 -16 5 -3 10 1 10 9 0 18 -6 21 -15 7z"/>
<path d="M960 794 c0 -8 5 -12 10 -9 6 3 10 10 10 16 0 5 -4 9 -10 9 -5 0 -10
-7 -10 -16z"/>
<path d="M1003 800 c2 -8 13 -15 24 -16 14 -1 20 3 16 12 -6 17 -23 18 -23 2
0 -9 -4 -8 -11 2 -9 13 -10 13 -6 0z"/>
<path d="M1060 799 c0 -5 16 -9 35 -9 19 0 35 4 35 9 0 5 -16 9 -35 9 -19 0
-35 -4 -35 -9z"/>
<path d="M631 733 c0 -16 3 -23 5 -16 7 16 34 5 34 -13 0 -8 -10 -19 -22 -24
-21 -9 -20 -9 7 -7 17 1 29 5 28 10 -2 4 -3 23 -3 42 0 31 -3 35 -25 35 -21 0
-25 -5 -24 -27z"/>
<path d="M915 752 c-3 -3 -5 -10 -5 -16 0 -6 5 -4 10 4 6 10 10 11 10 3 0 -7
5 -13 10 -13 6 0 10 6 10 13 0 13 -25 19 -35 9z"/>
<path d="M960 744 c0 -14 3 -14 15 -4 8 7 15 14 15 16 0 2 -7 4 -15 4 -8 0
-15 -7 -15 -16z"/>
<path d="M1000 745 c-8 -9 -8 -15 -2 -15 12 0 26 19 19 26 -2 2 -10 -2 -17
-11z"/>
<path d="M1031 744 c0 -11 3 -14 6 -6 3 7 2 16 -1 19 -3 4 -6 -2 -5 -13z"/>
<path d="M1050 750 c0 -5 5 -10 10 -10 6 0 10 5 10 10 0 6 -4 10 -10 10 -5 0
-10 -4 -10 -10z"/>
<path d="M1090 750 c0 -5 5 -10 10 -10 6 0 10 5 10 10 0 6 -4 10 -10 10 -5 0
-10 -4 -10 -10z"/>
<path d="M605 710 c3 -5 8 -10 11 -10 2 0 4 5 4 10 0 6 -5 10 -11 10 -5 0 -7
-4 -4 -10z"/>
<path d="M1108 713 c6 -3 10 -9 7 -14 -4 -5 12 -8 35 -7 22 1 36 5 29 8 -8 6
-7 9 2 12 8 3 -8 5 -36 5 -27 0 -44 -2 -37 -4z"/>
<path d="M942 701 c4 -15 58 -23 58 -8 0 4 5 5 12 1 6 -4 8 -3 5 3 -9 14 -57
13 -57 -1 0 -6 -5 -4 -11 4 -8 12 -10 12 -7 1z"/>
<path d="M1045 700 c-3 -5 -1 -10 4 -10 6 0 11 5 11 10 0 6 -2 10 -4 10 -3 0
-8 -4 -11 -10z"/>
<path d="M1331 707 c2 -1 13 -9 24 -17 19 -14 19 -14 6 3 -7 9 -18 17 -24 17
-6 0 -8 -1 -6 -3z"/>
<path d="M290 539 c0 -22 0 -22 -15 -3 -15 19 -15 19 -30 -1 -18 -22 -56 -29
-68 -11 -5 8 -11 6 -20 -5 -6 -8 -20 -18 -31 -22 -11 -4 -16 -13 -12 -22 3 -9
-1 -18 -9 -21 -19 -8 -19 -24 -1 -24 23 0 30 -20 13 -37 -17 -18 -41 -8 -33
13 3 8 -1 14 -8 14 -8 0 -16 -7 -20 -15 -3 -8 0 -14 6 -12 6 1 13 -4 16 -12 3
-10 0 -12 -14 -7 -15 6 -17 5 -7 -5 15 -15 18 -33 4 -25 -10 7 -61 -16 -61
-27 0 -5 6 -7 13 -4 13 4 40 -70 30 -86 -3 -5 -14 -7 -24 -4 -18 5 -19 -2 -19
-108 l0 -114 661 0 c398 -1 658 3 654 8 -7 13 -63 25 -107 23 -39 -1 -60 14
-33 24 25 10 65 97 59 130 -7 39 -13 42 -30 19 -12 -16 -18 -18 -34 -7 -37 23
-42 8 -9 -27 12 -12 18 -25 14 -29 -4 -4 -10 -1 -12 6 -7 19 -23 14 -23 -8 0
-13 -7 -20 -20 -20 -12 0 -17 -5 -14 -14 3 -8 1 -17 -5 -21 -10 -6 -21 1 -62
37 -10 10 -23 18 -28 18 -5 0 -15 7 -22 16 -12 14 -10 19 14 38 15 12 27 28
27 36 0 8 14 23 30 32 27 16 31 16 37 2 3 -8 1 -20 -6 -27 -17 -17 -13 -37 8
-37 25 0 38 20 21 30 -11 7 -10 12 3 25 10 9 17 22 17 29 0 8 6 19 14 25 12
10 17 8 26 -9 6 -11 9 -24 6 -29 -3 -5 7 -11 22 -14 46 -10 111 -87 72 -87 -5
0 -10 -4 -10 -10 0 -5 7 -10 15 -10 9 0 27 -11 41 -25 14 -14 29 -25 34 -25
14 0 13 337 0 345 -5 3 -10 -2 -11 -12 -1 -13 -3 -10 -9 7 -6 22 -8 23 -15 7
-6 -15 -10 -16 -16 -5 -6 9 -9 6 -9 -10 0 -13 -4 -21 -9 -18 -5 3 -11 -4 -15
-17 -5 -18 -8 -19 -15 -7 -6 8 -13 11 -17 7 -4 -4 -13 1 -20 11 -11 14 -13 14
-14 2 0 -13 -1 -13 -10 0 -13 21 -24 5 -11 -18 9 -16 7 -21 -9 -25 -11 -3 -20
-13 -20 -22 0 -12 -6 -15 -20 -11 -11 3 -30 9 -42 12 -31 9 -44 24 -51 63 -6
30 -5 33 13 28 11 -3 20 -1 20 4 0 5 -18 9 -40 9 -29 0 -43 -6 -57 -24 -15
-20 -22 -22 -52 -14 -26 8 -37 6 -49 -6 -14 -14 -13 -16 11 -25 15 -6 27 -17
27 -26 0 -18 -13 -19 -56 -3 -40 14 -57 3 -86 -60 -21 -44 -21 -44 -34 -21
-12 21 -11 26 9 44 12 12 29 29 37 39 14 18 14 19 -7 7 -13 -6 -23 -7 -23 -2
0 5 5 11 11 13 7 2 9 13 4 27 -4 13 -10 19 -14 14 -3 -5 -14 -12 -23 -16 -10
-3 -18 -13 -18 -22 0 -8 -9 -15 -19 -15 -14 0 -20 9 -23 35 -6 50 5 64 31 40
12 -10 24 -15 28 -11 4 4 -2 15 -13 24 -26 21 -37 49 -22 58 7 4 8 3 4 -4 -5
-8 0 -12 13 -12 27 0 46 34 28 49 -10 7 -17 7 -24 0 -8 -8 -20 -8 -41 -1 -24
8 -29 7 -29 -7 0 -9 7 -24 15 -33 9 -11 10 -18 4 -18 -6 0 -14 5 -17 10 -11
18 -23 11 -18 -10 3 -11 12 -20 21 -20 13 0 14 -2 3 -12 -11 -10 -14 -10 -18
0 -7 18 -54 15 -86 -6 -15 -10 -25 -21 -23 -23 3 -3 -5 -6 -17 -6 -19 -2 -18
2 13 27 19 16 32 32 28 36 -4 4 -28 -10 -53 -31 -44 -36 -47 -36 -60 -19 -8
11 -15 23 -15 27 0 5 -7 25 -17 44 l-16 35 -20 -32 c-21 -33 -17 -51 8 -30 13
10 15 9 15 -8 0 -12 -10 -28 -22 -36 -12 -8 -41 -34 -65 -57 -35 -33 -46 -39
-57 -30 -11 10 -17 8 -26 -6 -10 -16 -11 -16 -7 4 3 13 1 26 -5 29 -7 4 -6 9
2 14 17 10 3 70 -17 70 -8 0 -13 6 -10 13 2 6 18 12 35 12 24 0 32 4 32 18 0
14 5 16 25 11 22 -5 25 -3 25 19 0 14 -4 29 -10 32 -6 3 -10 -4 -10 -16z
m-122 -158 c-18 -17 -36 -31 -40 -31 -4 0 9 15 30 34 20 19 39 33 40 31 2 -2
-11 -17 -30 -34z m872 13 c0 -13 -3 -14 -13 -5 -8 6 -16 8 -19 5 -3 -3 -9 -1
-13 5 -4 7 4 11 19 11 17 0 26 -5 26 -16z m-553 -28 c4 -3 1 -6 -5 -6 -7 0
-12 -8 -12 -17 0 -29 -30 -54 -51 -42 -11 5 -19 16 -19 24 0 18 12 19 29 3 10
-11 10 -8 2 15 -6 16 -11 29 -11 31 0 5 62 -2 67 -8z m113 -6 c0 -5 -4 -10 -9
-10 -6 0 -13 5 -16 10 -3 6 1 10 9 10 9 0 16 -4 16 -10z m-495 -20 c-3 -5 -11
-10 -16 -10 -6 0 -7 5 -4 10 3 6 11 10 16 10 6 0 7 -4 4 -10z m548 -14 c3 -7
-8 -25 -24 -40 -16 -15 -29 -22 -29 -15 0 7 -3 10 -6 6 -4 -3 -13 0 -21 8 -19
20 -63 19 -63 0 0 -8 -5 -15 -11 -15 -6 0 -8 -8 -5 -17 4 -11 -1 -8 -13 7 -15
18 -17 29 -9 43 5 11 16 16 24 13 8 -3 17 0 20 8 4 10 19 13 55 9 29 -2 49 0
49 6 0 14 27 3 33 -13z m-391 -38 c73 -39 91 -73 69 -131 -17 -44 -62 -42
-149 7 -43 25 -46 32 -28 71 13 26 22 35 33 31 10 -4 21 2 30 14 17 24 14 23
45 8z m-139 -5 c11 -10 -23 -42 -39 -36 -10 4 -11 10 -3 24 10 19 30 25 42 12z
m279 -25 c-7 -7 -12 -8 -12 -2 0 14 12 26 19 19 2 -3 -1 -11 -7 -17z m338 -53
c10 -9 41 -17 72 -19 65 -4 72 -7 91 -46 13 -24 13 -32 2 -47 -8 -10 -11 -30
-8 -45 5 -24 2 -28 -18 -27 -13 0 -37 8 -54 18 -25 14 -30 24 -30 54 0 21 -7
44 -17 54 -17 16 -18 16 -18 -5 0 -13 -6 -22 -15 -22 -9 0 -15 9 -15 24 0 29
-43 44 -68 24 -16 -12 -16 -11 -1 7 9 11 14 26 12 33 -7 18 47 15 67 -3z
m-580 -129 c0 -10 -10 -14 -35 -13 -39 2 -46 13 -12 20 41 8 47 7 47 -7z"/>
<path d="M410 523 c0 -5 7 -16 15 -26 13 -18 14 -18 35 3 12 12 19 25 15 28
-3 4 -10 0 -15 -8 -8 -12 -13 -13 -30 -2 -11 7 -20 9 -20 5z"/>
<path d="M786 505 c4 -8 8 -15 10 -15 2 0 4 7 4 15 0 8 -4 15 -10 15 -5 0 -7
-7 -4 -15z"/>
<path d="M847 514 c7 -3 9 -12 6 -20 -3 -10 2 -14 17 -14 22 0 23 1 5 20 -10
11 -23 20 -29 19 -7 0 -7 -2 1 -5z"/>
<path d="M302 484 c-12 -8 -21 -23 -21 -32 1 -15 2 -15 6 -1 3 11 11 15 23 12
11 -3 17 -9 14 -14 -3 -5 -1 -9 4 -9 5 0 12 14 14 30 5 34 -6 38 -40 14z"/>
<path d="M19 473 c-12 -3 -17 -15 -17 -44 -1 -42 2 -46 22 -27 10 9 11 20 5
37 -8 21 -7 23 11 18 11 -3 22 -2 25 3 6 9 -24 17 -46 13z"/>
<path d="M1236 121 c-17 -33 -23 -78 -7 -52 8 12 10 12 13 0 3 -8 3 -1 1 14
-3 15 1 34 8 43 6 8 9 17 6 20 -3 3 -13 -8 -21 -25z"/>
<path d="M1348 13 c7 -3 16 -2 19 1 4 3 -2 6 -13 5 -11 0 -14 -3 -6 -6z"/>
</g>
</svg>
